<mxfile host="app.diagrams.net" modified="2024-07-18T11:28:53.026Z" agent="Mozilla/5.0 (Macintosh; Intel Mac OS X 10_15_7) AppleWebKit/537.36 (KHTML, like Gecko) Chrome/126.0.0.0 Safari/537.36" version="24.7.1" etag="jl4dVcpFQnh3UPh805Zk" type="github">
  <diagram name="Page-1" id="OoN6-_KHytdXhwl2TU1j">
    <mxGraphModel>
      <root>
        <mxCell id="0" />
        <mxCell id="1" parent="0" />
      </root>
    </mxGraphModel>
  </diagram>
</mxfile>
